<svg xmlns="http://www.w3.org/2000/svg" version="1.1" xmlns:xlink="http://www.w3.org/1999/xlink" xmlns:svgjs="http://svgjs.dev/svgjs" width="1000" height="1000" viewBox="0 0 1000 1000"><g transform="matrix(1,0,0,1,0,0)"><svg viewBox="0 0 280 280" data-background-color="#4d331f" preserveAspectRatio="xMidYMid meet" height="1000" width="1000" xmlns="http://www.w3.org/2000/svg" xmlns:xlink="http://www.w3.org/1999/xlink"><g id="tight-bounds" transform="matrix(1,0,0,1,0,0)"><svg viewBox="0 0 280 280" height="280" width="280"><g><svg viewBox="0 0 280 280" height="280" width="280"><g><svg viewBox="0 0 280 280" height="280" width="280"><g id="textblocktransform"><svg viewBox="0 0 280 280" height="280" width="280" id="textblock"><g><svg viewBox="0 0 280 280" height="280" width="280"><g transform="matrix(1,0,0,1,57.50420886156945,57.50420886156945)"><svg viewBox="0 0 164.9915822768611 164.9915822768611" height="164.9915822768611" width="164.9915822768611"><g><circle r="82" cx="82.49579113843055" cy="82.49579113843055" fill="#7c4e29" data-fill-palette-color="accent"></circle><svg xmlns="http://www.w3.org/2000/svg" xmlns:xlink="http://www.w3.org/1999/xlink" version="1.0" x="24.74873734152917" y="24.748737341529164" viewBox="1 1 48 48" enable-background="new 0 0 50 50" xml:space="preserve" height="115.49410759380275" width="115.49410759380275" class="icon-o-0" data-fill-palette-color="quaternary" id="o-0"><g fill="#4d331f" data-fill-palette-color="quaternary"><g fill="#4d331f" data-fill-palette-color="quaternary"><rect x="1" y="1" fill="#4d331f" width="23" height="5" data-fill-palette-color="quaternary"></rect><rect x="1" y="10" fill="#4d331f" width="23" height="5" data-fill-palette-color="quaternary"></rect><rect x="1" y="19" fill="#4d331f" width="23" height="5" data-fill-palette-color="quaternary"></rect></g><g fill="#4d331f" data-fill-palette-color="quaternary"><rect x="26" y="26" fill="#4d331f" width="23" height="5" data-fill-palette-color="quaternary"></rect><rect x="26" y="35" fill="#4d331f" width="23" height="5" data-fill-palette-color="quaternary"></rect><rect x="26" y="44" fill="#4d331f" width="23" height="5" data-fill-palette-color="quaternary"></rect></g><g fill="#4d331f" data-fill-palette-color="quaternary"><rect x="19" y="26" fill="#4d331f" width="5" height="23" data-fill-palette-color="quaternary"></rect><rect x="10" y="26" fill="#4d331f" width="5" height="23" data-fill-palette-color="quaternary"></rect><rect x="1" y="26" fill="#4d331f" width="5" height="23" data-fill-palette-color="quaternary"></rect></g><g fill="#4d331f" data-fill-palette-color="quaternary"><rect x="44" y="1" fill="#4d331f" width="5" height="23" data-fill-palette-color="quaternary"></rect><rect x="35" y="1" fill="#4d331f" width="5" height="23" data-fill-palette-color="quaternary"></rect><rect x="26" y="1" fill="#4d331f" width="5" height="23" data-fill-palette-color="quaternary"></rect></g></g></svg></g></svg></g><g><path d="M13.092 189.977L9.878 181.498 35.818 171.665 39.032 180.144ZM36.754 189.759L34.375 183.484 39.553 181.52 43.229 191.218 40.014 198.36 31.116 201.732 23.956 198.524 20.28 188.827 25.477 186.856 27.856 193.132ZM33.144 226.201L34.961 223.504 29.775 216.066 35.383 214.495 38.254 218.614 49.771 201.543 54.923 208.933 38.489 233.868ZM41.474 211.097L25.877 215.777 20.77 208.453 48.169 201.436ZM44.221 239.276L58.2 224.606 65.161 231.238 51.182 245.909ZM53.954 218.568L58.118 214.199 75.559 230.819 71.396 235.188ZM60.51 253.774L63.795 248.853 66.11 250.399 74.953 237.15 72.638 235.605 75.911 230.7 88.225 238.92 84.952 243.824 82.636 242.278 73.793 255.527 76.109 257.073 72.824 261.993ZM99.872 261.289L91.711 257.867 87.305 268.376 78.786 264.804 89.513 239.221 98.032 242.793 93.779 252.934 101.94 256.356ZM102.613 250.536L97.313 248.313 99.389 243.362 112.712 248.948 109.61 256.348 101.586 252.984ZM101.985 274.531L88.662 268.945 90.803 263.837 95.599 265.848 96.676 263.281 105.203 266.856ZM122.869 249.99L135.265 280 125.559 278.486 113.221 248.485ZM116.904 277.136L108.946 275.895 112.815 251.089 118.741 265.357ZM131.583 251.349L139.541 252.59 135.671 277.397 129.756 263.06ZM149.043 251.16L151.661 278.778 147.998 279.125 141.942 274.136 140.37 257.546 145.38 251.507ZM157.148 255.955L151.031 256.535 150.508 251.021 160.308 250.092 166.344 255.083 166.87 260.637 157.674 261.508ZM162.926 277.71L153.126 278.639 152.603 273.125 158.721 272.545 158.338 268.507 167.534 267.635 167.917 271.674ZM188.57 258.521L180.202 261.398 183.907 272.174 175.172 275.178 166.151 248.945 174.886 245.941 178.462 256.34 186.83 253.462ZM183.458 248.67L178.023 250.539 176.277 245.462 189.939 240.764 192.549 248.352 184.321 251.181ZM198.961 266.997L185.299 271.695 183.498 266.458 188.415 264.767 187.51 262.134 196.254 259.127ZM218.868 253.832L189.603 240.27 197.703 234.711 210.82 240.663 209.972 229.077 217.877 240.596ZM233.109 244.06L225.484 249.292 209.788 226.418 217.412 221.186ZM212.4 258.271L205.284 263.154 191.039 242.396 206.357 249.466ZM250.555 222.817L247.451 221.848 241.808 228.946 238.698 224.022 241.823 220.091 222.17 213.942 227.776 206.891 256.372 215.501ZM233.699 219.158L242.647 232.763 237.09 239.752 222.526 215.508ZM237.84 190.355L270.122 186.871 265.947 195.763 233.69 199.193ZM262.224 203.693L258.801 210.983 236.075 200.313 251.433 198.626ZM241.588 182.371L245.011 175.081 267.737 185.751 252.317 187.408Z" fill="#d9bca9" data-fill-palette-color="primary"></path><path d="M33.936 103.364L30.722 111.844 4.782 102.011 7.996 93.531ZM16.076 87.842L13.697 94.118 8.518 92.155 12.194 82.458 19.336 79.242 28.233 82.615 31.468 89.764 27.792 99.461 22.594 97.491 24.973 91.215ZM51.441 71.969L48.282 71.197 43.096 78.635 39.683 73.917 42.554 69.798 22.554 64.896 27.706 57.506 56.786 64.302ZM34.388 69.377L44.173 82.393 39.067 89.717 23.007 66.436ZM59.621 62.27L45.642 47.6 52.602 40.967 66.581 55.637ZM39.407 51.55L35.243 47.18 52.685 30.56 56.848 34.93ZM72.919 50.165L69.635 45.245 71.951 43.699 63.108 30.45 60.792 31.996 57.519 27.092 69.833 18.872 73.106 23.777 70.79 25.322 79.634 38.571 81.949 37.025 85.234 41.946ZM99.728 23.642L91.567 27.064 95.973 37.572 87.455 41.144 76.727 15.561 85.246 11.989 89.498 22.13 97.659 18.709ZM93.979 14.149L88.679 16.371 86.603 11.42 99.927 5.833 103.029 13.233 95.006 16.597ZM110.654 31.416L97.33 37.003 95.189 31.896 99.984 29.885 98.908 27.317 107.436 23.741ZM117.823 2.6L138.77 27.41 129.064 28.924 108.175 4.105ZM120.408 30.274L112.451 31.515 108.581 6.709 118.571 18.494ZM126.537 1.241L134.495 0 138.364 24.806 128.364 12.952ZM152.266 1.181L149.648 28.798 145.986 28.451 140.975 22.413 142.548 5.823 148.604 0.834ZM159.326 7.413L153.209 6.833 153.731 1.32 163.531 2.249 168.522 8.285 167.996 13.838 158.8 12.966ZM160.913 29.866L151.113 28.937 151.636 23.424 157.753 24.003 158.136 19.965 167.332 20.837 166.949 24.875ZM188.843 26.397L180.475 23.519 176.769 34.294 168.034 31.29 177.056 5.057 185.791 8.061 182.215 18.46 190.583 21.338ZM190.871 15.486L185.436 13.617 187.182 8.54 200.844 13.238 198.235 20.826 190.008 17.996ZM191.823 39.471L178.161 34.773 179.962 29.536 184.879 31.227 185.785 28.594 194.529 31.601ZM206.388 49.947L208.516 17.763 216.616 23.321 215.78 37.701 226.286 32.742 218.381 44.261ZM220.628 59.719L213.004 54.487 228.7 31.614 236.325 36.846ZM199.919 45.508L192.803 40.625 207.048 19.867 205.962 36.703ZM233.258 76.473L234.902 73.667 229.258 66.569 234.757 64.649 237.882 68.58 248.302 50.819 253.908 57.87 239.075 83.789ZM240.622 60.875L225.35 66.526 219.793 59.537 246.696 50.812ZM268.047 80.973L250.107 108.037 245.932 99.145 263.897 72.135ZM242.209 91.215L238.786 83.925 261.512 73.255 253 86.149ZM271.795 88.957L275.218 96.247 252.492 106.917 261.066 93.994Z" fill="#d9bca9" data-fill-palette-color="primary"></path><path d="M12.21 142.736c0-1.756 1.423-3.179 3.18-3.18 1.756 0 3.179 1.423 3.179 3.18 0 1.756-1.423 3.179-3.179 3.179-1.756 0-3.179-1.423-3.18-3.179zM262.781 142.736c0-1.756 1.423-3.179 3.179-3.18 1.756 0 3.179 1.423 3.179 3.18 0 1.756-1.423 3.179-3.179 3.179-1.756 0-3.179-1.423-3.179-3.179z" fill="#d9bca9" data-fill-palette-color="primary"></path></g></svg></g></svg></g></svg></g><g></g></svg></g><defs></defs></svg><rect width="280" height="280" fill="none" stroke="none" visibility="hidden"></rect></g></svg></g></svg>